<?xml version="1.0" encoding="UTF-8" standalone="no"?>
<svg
   xmlns:dc="http://purl.org/dc/elements/1.1/"
   xmlns:cc="http://creativecommons.org/ns#"
   xmlns:rdf="http://www.w3.org/1999/02/22-rdf-syntax-ns#"
   xmlns:svg="http://www.w3.org/2000/svg"
   xmlns="http://www.w3.org/2000/svg"
   viewBox="0 0 1122.52 793.70135"
   height="793.70135"
   width="1122.52"
   xml:space="preserve"
   id="svg2"
   version="1.1"><metadata
     id="metadata8"><rdf:RDF><cc:Work
         rdf:about=""><dc:format>image/svg+xml</dc:format><dc:type
           rdf:resource="http://purl.org/dc/dcmitype/StillImage" /></cc:Work></rdf:RDF></metadata><defs
     id="defs6"><clipPath
       id="clipPath18"
       clipPathUnits="userSpaceOnUse"><path
         id="path16"
         d="M 0,595.276 H 841.89 V 0 H 0 Z" /></clipPath></defs><g
     transform="matrix(1.3333333,0,0,-1.3333333,0,793.70133)"
     id="g10"><g
       id="g12"><g
         clip-path="url(#clipPath18)"
         id="g14"><g
           transform="translate(529.6867,328.6018)"
           id="g20"><path
             id="path22"
             style="fill:#ea7119;fill-opacity:1;fill-rule:nonzero;stroke:none"
             d="m 0,0 c 4.465,-0.514 8.621,-0.866 12.733,-1.496 5.043,-0.773 8.519,-3.651 8.933,-8.841 0.407,-5.099 -2.293,-8.934 -7.15,-10.401 -4.485,-1.354 -9.224,-1.863 -14.376,-2.843 -0.116,-1.272 -0.366,-2.777 -0.369,-4.285 -0.043,-15.603 -0.54,-31.225 0.048,-46.805 1.013,-26.875 -10.433,-47.519 -31.19,-63.237 -27.104,-20.523 -58.089,-27.934 -91.635,-24.14 -49.73,5.624 -87.064,30.41 -110.456,74.697 -15.71,29.743 -20.084,61.988 -17.042,95.347 2.438,26.732 9.851,51.874 24.074,74.744 12.727,20.461 29.781,35.699 53.487,42.419 24.191,6.857 46.145,-1.278 57.267,-21.192 9.606,-17.197 8.005,-41.219 -3.662,-54.392 -12.187,-13.762 -30.152,-12.749 -43.348,-5.928 -6.948,3.591 -8.82,12.971 -4.937,19.855 3.848,6.821 12.17,9.423 19.579,6.12 6.691,-2.982 8.2,-2.186 9.757,5.148 3.247,15.305 -8.342,26.896 -23.605,23.701 -15.643,-3.275 -27.152,-12.556 -36.339,-25.066 -12.613,-17.176 -19.328,-36.82 -22.705,-57.591 -4.773,-29.366 -2.127,-58.148 10.499,-85.25 16.854,-36.179 45.744,-57.15 85.001,-63.678 23.762,-3.951 46.444,-0.254 67.454,11.686 13.27,7.541 24.503,17.354 28.008,33.071 1.272,5.703 0.725,11.842 0.759,17.784 0.085,14.883 0.028,29.768 0.028,45.433 -2.639,0 -5.014,0.107 -7.377,-0.019 -8.574,-0.459 -17.139,-1.09 -25.715,-1.464 -3.949,-0.172 -5.314,-1.78 -5.283,-5.83 0.145,-19.114 0.042,-38.231 -0.077,-57.347 -0.072,-11.592 -8.317,-18.137 -19.526,-15.681 -5.647,1.237 -8.383,4.509 -8.419,10.256 -0.132,20.516 -0.304,41.032 -0.28,61.548 0.005,4.282 -0.56,6.566 -5.88,6.759 -8.728,0.315 -13.521,4.529 -13.619,10.281 -0.094,5.498 4.408,9.229 12.909,10.698 9.101,1.573 9.094,1.573 9.104,10.626 0.009,7.015 -0.126,14.037 0.177,21.04 0.078,1.816 1.129,4.028 2.464,5.275 5.108,4.775 14.535,5.883 20.694,2.692 3.575,-1.852 6.091,-4.118 5.629,-8.967 -0.762,-8.013 -0.761,-16.098 -1.127,-24.149 -0.118,-2.612 0.309,-4.43 3.634,-4.254 9.975,0.527 19.957,0.908 29.938,1.305 2.976,0.119 3.8,1.752 3.731,4.484 -0.193,7.535 -0.291,15.074 -0.305,22.612 -0.003,1.707 0.057,3.644 0.827,5.081 2.252,4.211 12.726,7.035 18.812,5.353 5.747,-1.59 9.018,-6.612 8.904,-13.203 C -0.097,14.649 0,7.337 0,0" /></g><g
           transform="translate(457.0608,419.8098)"
           id="g24"><path
             id="path26"
             style="fill:#188a35;fill-opacity:1;fill-rule:nonzero;stroke:none"
             d="m 0,0 c 7.841,4.779 15.144,10.374 23.322,13.987 20.324,8.977 45.629,2.679 59.243,-13.826 4.492,-5.446 4.355,-11.478 -0.346,-15.36 -4.34,-3.582 -10.402,-2.722 -14.867,2.109 -14.58,15.775 -37.755,14.392 -52.803,-3.161 -3.532,-4.12 -6.92,-8.369 -10.569,-12.382 -3.543,-3.896 -8.016,-5.79 -13.248,-4.183 -5.105,1.568 -6.207,6.097 -7.175,10.682 -7.681,36.363 -15.336,72.734 -23.204,109.057 -1.4,6.46 -3.708,12.726 -5.678,19.057 -2.181,7.01 -0.204,11.869 5.859,14.121 5.476,2.034 10.906,-0.427 12.823,-7.32 4.952,-17.804 9.532,-35.727 13.677,-53.736 C -8.659,40.339 -5.047,21.474 -1.086,2.688 -0.847,1.553 -0.208,0.501 0,0" /></g><g
           transform="translate(457.0608,419.8098)"
           id="g28"><path
             id="path30"
             style="fill:none;stroke:#188a35;stroke-width:1;stroke-linecap:butt;stroke-linejoin:miter;stroke-miterlimit:10;stroke-dasharray:none;stroke-opacity:1"
             d="m 0,0 c 7.841,4.779 15.144,10.374 23.322,13.987 20.324,8.977 45.629,2.679 59.243,-13.826 4.492,-5.446 4.355,-11.478 -0.346,-15.36 -4.34,-3.582 -10.402,-2.722 -14.867,2.109 -14.58,15.775 -37.755,14.392 -52.803,-3.161 -3.532,-4.12 -6.92,-8.369 -10.569,-12.382 -3.543,-3.896 -8.016,-5.79 -13.248,-4.183 -5.105,1.568 -6.207,6.097 -7.175,10.682 -7.681,36.363 -15.336,72.734 -23.204,109.057 -1.4,6.46 -3.708,12.726 -5.678,19.057 -2.181,7.01 -0.204,11.869 5.859,14.121 5.476,2.034 10.906,-0.427 12.823,-7.32 4.952,-17.804 9.532,-35.727 13.677,-53.736 C -8.659,40.339 -5.047,21.474 -1.086,2.688 -0.847,1.553 -0.208,0.501 0,0 Z" /></g><g
           transform="translate(542.1691,524.0208)"
           id="g32"><path
             id="path34"
             style="fill:#188a35;fill-opacity:1;fill-rule:nonzero;stroke:none"
             d="m 0,0 c -23.698,-16.345 -47.395,-32.689 -71.415,-49.255 -3.845,7.085 -2.835,13.398 -1.088,19.578 5.208,18.411 18.366,29.777 34.727,37.926 14.698,7.32 30.453,11.145 46.76,12.772 3.793,0.378 7.58,0.813 12.458,1.34 C 14.207,13.035 14.819,2.509 12.486,-7.234 8.139,-25.386 1.369,-42.51 -13.648,-54.586 -26.317,-64.774 -41.04,-68.992 -57.394,-65.804 c -0.457,0.089 -0.869,0.412 -2.637,1.286 20.58,21.409 40.76,42.4 60.94,63.393 C 0.605,-0.75 0.303,-0.375 0,0" /></g><g
           transform="translate(542.1691,524.0208)"
           id="g36"><path
             id="path38"
             style="fill:none;stroke:#188a35;stroke-width:1;stroke-linecap:butt;stroke-linejoin:miter;stroke-miterlimit:10;stroke-dasharray:none;stroke-opacity:1"
             d="m 0,0 c -23.698,-16.345 -47.395,-32.689 -71.415,-49.255 -3.845,7.085 -2.835,13.398 -1.088,19.578 5.208,18.411 18.366,29.777 34.727,37.926 14.698,7.32 30.453,11.145 46.76,12.772 3.793,0.378 7.58,0.813 12.458,1.34 C 14.207,13.035 14.819,2.509 12.486,-7.234 8.139,-25.386 1.369,-42.51 -13.648,-54.586 -26.317,-64.774 -41.04,-68.992 -57.394,-65.804 c -0.457,0.089 -0.869,0.412 -2.637,1.286 20.58,21.409 40.76,42.4 60.94,63.393 C 0.605,-0.75 0.303,-0.375 0,0 Z" /></g><g
           transform="translate(232.0901,84.5906)"
           id="g40"><path
             id="path42"
             style="fill:#188a35;fill-opacity:1;fill-rule:nonzero;stroke:none"
             d="m 0,0 c -1.232,1.931 -2.863,2.729 -4.694,2.729 -4.928,0 -7.025,-5.426 -7.025,-10.453 0,-5.059 2.164,-10.419 7.025,-10.419 2.762,0 4.027,1.897 5.325,4.161 0.168,0.266 1.599,0.599 2.63,0.599 0.7,0 1.2,-0.133 1,-0.566 -1.432,-3.063 -4.196,-5.56 -8.955,-5.56 -8.024,0 -11.353,5.727 -11.353,11.785 0,5.56 3.329,11.818 11.353,11.818 2.995,0 5.126,-0.599 6.824,-1.963 C 2.962,1.464 3.728,0.532 4.094,-0.267 4.627,-1.465 3.861,-3.962 2.962,-3.962 1.831,-3.962 0.965,-1.499 0,0" /></g><g
           transform="translate(232.0901,84.5906)"
           id="g44"><path
             id="path46"
             style="fill:none;stroke:#188a35;stroke-width:1;stroke-linecap:butt;stroke-linejoin:miter;stroke-miterlimit:10;stroke-dasharray:none;stroke-opacity:1"
             d="m 0,0 c -1.232,1.931 -2.863,2.729 -4.694,2.729 -4.928,0 -7.025,-5.426 -7.025,-10.453 0,-5.059 2.164,-10.419 7.025,-10.419 2.762,0 4.027,1.897 5.325,4.161 0.168,0.266 1.599,0.599 2.63,0.599 0.7,0 1.2,-0.133 1,-0.566 -1.432,-3.063 -4.196,-5.56 -8.955,-5.56 -8.024,0 -11.353,5.727 -11.353,11.785 0,5.56 3.329,11.818 11.353,11.818 2.995,0 5.126,-0.599 6.824,-1.963 C 2.962,1.464 3.728,0.532 4.094,-0.267 4.627,-1.465 3.861,-3.962 2.962,-3.962 1.831,-3.962 0.965,-1.499 0,0 Z" /></g><g
           transform="translate(248.8996,87.3201)"
           id="g48"><path
             id="path50"
             style="fill:#188a35;fill-opacity:1;fill-rule:nonzero;stroke:none"
             d="m 0,0 c -4.96,0 -6.691,-5.427 -6.691,-10.453 0,-5.06 1.731,-10.419 6.691,-10.419 4.86,0 6.592,5.359 6.592,10.419 C 6.592,-5.427 4.86,0 0,0 m 0,1.364 c 7.924,0 10.92,-6.391 10.92,-11.817 0,-5.459 -2.996,-11.785 -10.92,-11.785 -8.022,0 -11.019,6.326 -11.019,11.785 0,5.426 2.997,11.817 11.019,11.817" /></g><g
           transform="translate(248.8996,87.3201)"
           id="g52"><path
             id="path54"
             style="fill:none;stroke:#188a35;stroke-width:1;stroke-linecap:butt;stroke-linejoin:miter;stroke-miterlimit:10;stroke-dasharray:none;stroke-opacity:1"
             d="m 0,0 c -4.96,0 -6.691,-5.427 -6.691,-10.453 0,-5.06 1.731,-10.419 6.691,-10.419 4.86,0 6.592,5.359 6.592,10.419 C 6.592,-5.427 4.86,0 0,0 Z m 0,1.364 c 7.924,0 10.92,-6.391 10.92,-11.817 0,-5.459 -2.996,-11.785 -10.92,-11.785 -8.022,0 -11.019,6.326 -11.019,11.785 0,5.426 2.997,11.817 11.019,11.817 z" /></g><g
           transform="translate(272.4699,87.3201)"
           id="g56"><path
             id="path58"
             style="fill:#188a35;fill-opacity:1;fill-rule:nonzero;stroke:none"
             d="m 0,0 c -4.96,0 -6.691,-5.427 -6.691,-10.453 0,-5.06 1.731,-10.419 6.691,-10.419 4.86,0 6.591,5.359 6.591,10.419 C 6.591,-5.427 4.86,0 0,0 m 0,1.364 c 7.923,0 10.92,-6.391 10.92,-11.817 0,-5.459 -2.997,-11.785 -10.92,-11.785 -8.023,0 -11.019,6.326 -11.019,11.785 0,5.426 2.996,11.817 11.019,11.817" /></g><g
           transform="translate(272.4699,87.3201)"
           id="g60"><path
             id="path62"
             style="fill:none;stroke:#188a35;stroke-width:1;stroke-linecap:butt;stroke-linejoin:miter;stroke-miterlimit:10;stroke-dasharray:none;stroke-opacity:1"
             d="m 0,0 c -4.96,0 -6.691,-5.427 -6.691,-10.453 0,-5.06 1.731,-10.419 6.691,-10.419 4.86,0 6.591,5.359 6.591,10.419 C 6.591,-5.427 4.86,0 0,0 Z m 0,1.364 c 7.923,0 10.92,-6.391 10.92,-11.817 0,-5.459 -2.997,-11.785 -10.92,-11.785 -8.023,0 -11.019,6.326 -11.019,11.785 0,5.426 2.996,11.817 11.019,11.817 z" /></g><g
           transform="translate(290.4797,86.9539)"
           id="g64"><path
             id="path66"
             style="fill:#188a35;fill-opacity:1;fill-rule:nonzero;stroke:none"
             d="m 0,0 v -11.219 c 0.465,-0.033 1.164,-0.033 2.23,-0.033 3.529,0 6.125,1.365 6.125,5.492 0,4.262 -2.03,6.126 -4.494,6.126 C 1.164,0.366 0.864,0.167 0,0 M -3.996,1.432 3.861,1.73 c 5.493,0 8.823,-2.129 8.823,-7.49 0,-5.925 -5.061,-7.257 -10.52,-7.257 -1.066,0 -1.332,0 -2.164,0.034 v -8.589 h -3.962 z" /></g><g
           transform="translate(290.4797,86.9539)"
           id="g68"><path
             id="path70"
             style="fill:none;stroke:#188a35;stroke-width:1;stroke-linecap:butt;stroke-linejoin:miter;stroke-miterlimit:10;stroke-dasharray:none;stroke-opacity:1"
             d="m 0,0 v -11.219 c 0.465,-0.033 1.164,-0.033 2.23,-0.033 3.529,0 6.125,1.365 6.125,5.492 0,4.262 -2.03,6.126 -4.494,6.126 C 1.164,0.366 0.864,0.167 0,0 Z M -3.996,1.432 3.861,1.73 c 5.493,0 8.823,-2.129 8.823,-7.49 0,-5.925 -5.061,-7.257 -10.52,-7.257 -1.066,0 -1.332,0 -2.164,0.034 v -8.589 h -3.962 z" /></g><g
           transform="translate(305.7912,65.3816)"
           id="g72"><path
             id="path74"
             style="fill:#188a35;fill-opacity:1;fill-rule:nonzero;stroke:none"
             d="M 0,0 -0.033,22.971 H 14.98 c 0.4,0 0.667,-0.499 0.268,-1.033 -0.399,-0.532 -1.532,-1.231 -3.329,-1.231 -1.898,0 -3.33,0.765 -7.957,0.765 V 12.118 H 12.65 V 10.287 H 3.962 V 1.498 c 5.659,0 6.726,0.767 8.622,0.767 1.798,0 2.963,-0.667 3.297,-1.099 C 16.28,0.633 16.047,0 15.647,0 Z" /></g><g
           transform="translate(305.7912,65.3816)"
           id="g76"><path
             id="path78"
             style="fill:none;stroke:#188a35;stroke-width:1;stroke-linecap:butt;stroke-linejoin:miter;stroke-miterlimit:10;stroke-dasharray:none;stroke-opacity:1"
             d="M 0,0 -0.033,22.971 H 14.98 c 0.4,0 0.667,-0.499 0.268,-1.033 -0.399,-0.532 -1.532,-1.231 -3.329,-1.231 -1.898,0 -3.33,0.765 -7.957,0.765 V 12.118 H 12.65 V 10.287 H 3.962 V 1.498 c 5.659,0 6.726,0.767 8.622,0.767 1.798,0 2.963,-0.667 3.297,-1.099 C 16.28,0.633 16.047,0 15.647,0 Z" /></g><g
           transform="translate(328.9963,86.9539)"
           id="g80"><path
             id="path82"
             style="fill:#188a35;fill-opacity:1;fill-rule:nonzero;stroke:none"
             d="m 0,0 v -11.186 c 0.698,-0.066 1.365,-0.099 2.03,-0.099 4.062,0 6.526,1.198 6.526,5.825 0,3.563 -1.965,5.826 -4.494,5.826 C 1.365,0.366 0.864,0.167 0,0 M -3.996,1.432 4.062,1.73 c 5.492,0 8.821,-2.461 8.821,-7.49 0,-4.094 -3.362,-6.258 -6.491,-6.857 3.029,-2.963 5.425,-6.392 7.789,-8.422 0.334,-0.268 0,-0.633 -0.733,-0.633 H 12.55 c -1.464,0 -3.23,0.134 -4.128,1.566 -1.032,1.663 -2.264,4.66 -4.727,7.123 -0.466,0 -0.899,-0.034 -1.365,-0.034 -0.766,0 -1.565,0.034 -2.33,0.101 v -8.656 h -3.962 z" /></g><g
           transform="translate(328.9963,86.9539)"
           id="g84"><path
             id="path86"
             style="fill:none;stroke:#188a35;stroke-width:1;stroke-linecap:butt;stroke-linejoin:miter;stroke-miterlimit:10;stroke-dasharray:none;stroke-opacity:1"
             d="m 0,0 v -11.186 c 0.698,-0.066 1.365,-0.099 2.03,-0.099 4.062,0 6.526,1.198 6.526,5.825 0,3.563 -1.965,5.826 -4.494,5.826 C 1.365,0.366 0.864,0.167 0,0 Z M -3.996,1.432 4.062,1.73 c 5.492,0 8.821,-2.461 8.821,-7.49 0,-4.094 -3.362,-6.258 -6.491,-6.857 3.029,-2.963 5.425,-6.392 7.789,-8.422 0.334,-0.268 0,-0.633 -0.733,-0.633 H 12.55 c -1.464,0 -3.23,0.134 -4.128,1.566 -1.032,1.663 -2.264,4.66 -4.727,7.123 -0.466,0 -0.899,-0.034 -1.365,-0.034 -0.766,0 -1.565,0.034 -2.33,0.101 v -8.656 h -3.962 z" /></g><g
           transform="translate(349.4367,74.5369)"
           id="g88"><path
             id="path90"
             style="fill:#188a35;fill-opacity:1;fill-rule:nonzero;stroke:none"
             d="M 0,0 H 7.89 L 3.861,10.586 Z M 3.029,13.782 H 6.558 L 15.38,-9.155 h -4.028 l -2.83,7.324 h -9.123 l -1.796,-5.56 c -0.7,-1.764 -2.397,-1.764 -3.33,-1.764 -0.199,0 0,0.633 0.234,1.265 z" /></g><g
           transform="translate(349.4367,74.5369)"
           id="g92"><path
             id="path94"
             style="fill:none;stroke:#188a35;stroke-width:1;stroke-linecap:butt;stroke-linejoin:miter;stroke-miterlimit:10;stroke-dasharray:none;stroke-opacity:1"
             d="M 0,0 H 7.89 L 3.861,10.586 Z M 3.029,13.782 H 6.558 L 15.38,-9.155 h -4.028 l -2.83,7.324 h -9.123 l -1.796,-5.56 c -0.7,-1.764 -2.397,-1.764 -3.33,-1.764 -0.199,0 0,0.633 0.234,1.265 z" /></g><g
           transform="translate(383.1594,88.3523)"
           id="g96"><path
             id="path98"
             style="fill:#188a35;fill-opacity:1;fill-rule:nonzero;stroke:none"
             d="m 0,0 c 0.399,0 0.665,-0.499 0.266,-1.032 -0.4,-0.532 -1.532,-1.232 -3.329,-1.232 -1.631,0 -2.596,0.534 -5.227,0.7 v -21.407 h -3.961 l -0.033,21.407 c -2.664,-0.166 -3.629,-0.7 -5.228,-0.7 -1.797,0 -2.929,0.7 -3.329,1.232 C -21.24,-0.499 -20.974,0 -20.573,0 Z" /></g><g
           transform="translate(383.1594,88.3523)"
           id="g100"><path
             id="path102"
             style="fill:none;stroke:#188a35;stroke-width:1;stroke-linecap:butt;stroke-linejoin:miter;stroke-miterlimit:10;stroke-dasharray:none;stroke-opacity:1"
             d="m 0,0 c 0.399,0 0.665,-0.499 0.266,-1.032 -0.4,-0.532 -1.532,-1.232 -3.329,-1.232 -1.631,0 -2.596,0.534 -5.227,0.7 v -21.407 h -3.961 l -0.033,21.407 c -2.664,-0.166 -3.629,-0.7 -5.228,-0.7 -1.797,0 -2.929,0.7 -3.329,1.232 C -21.24,-0.499 -20.974,0 -20.573,0 Z" /></g><g
           transform="translate(388.552,65.3816)"
           id="g104"><path
             id="path106"
             style="fill:#188a35;fill-opacity:1;fill-rule:nonzero;stroke:none"
             d="M 0,0 H -3.961 L -3.995,22.971 H 0 Z" /></g><g
           transform="translate(388.552,65.3816)"
           id="g108"><path
             id="path110"
             style="fill:none;stroke:#188a35;stroke-width:1;stroke-linecap:butt;stroke-linejoin:miter;stroke-miterlimit:10;stroke-dasharray:none;stroke-opacity:1"
             d="M 0,0 H -3.961 L -3.995,22.971 H 0 Z" /></g><g
           transform="translate(390.8488,88.3523)"
           id="g112"><path
             id="path114"
             style="fill:#188a35;fill-opacity:1;fill-rule:nonzero;stroke:none"
             d="m 0,0 h 4.062 l 7.024,-19.075 5.593,16.611 c 0.765,2.131 2.796,2.83 3.728,2.83 0.234,0 0.266,-0.166 0.2,-0.366 L 11.852,-22.971 H 8.756 Z" /></g><g
           transform="translate(390.8488,88.3523)"
           id="g116"><path
             id="path118"
             style="fill:none;stroke:#188a35;stroke-width:1;stroke-linecap:butt;stroke-linejoin:miter;stroke-miterlimit:10;stroke-dasharray:none;stroke-opacity:1"
             d="m 0,0 h 4.062 l 7.024,-19.075 5.593,16.611 c 0.765,2.131 2.796,2.83 3.728,2.83 0.234,0 0.266,-0.166 0.2,-0.366 L 11.852,-22.971 H 8.756 Z" /></g><g
           transform="translate(414.6203,74.5369)"
           id="g120"><path
             id="path122"
             style="fill:#188a35;fill-opacity:1;fill-rule:nonzero;stroke:none"
             d="M 0,0 H 7.889 L 3.861,10.586 Z m 3.029,13.782 h 3.529 l 8.821,-22.937 h -4.027 l -2.831,7.324 h -9.122 l -1.797,-5.56 c -0.699,-1.764 -2.397,-1.764 -3.329,-1.764 -0.2,0 0,0.633 0.234,1.265 z" /></g><g
           transform="translate(414.6203,74.5369)"
           id="g124"><path
             id="path126"
             style="fill:none;stroke:#188a35;stroke-width:1;stroke-linecap:butt;stroke-linejoin:miter;stroke-miterlimit:10;stroke-dasharray:none;stroke-opacity:1"
             d="M 0,0 H 7.889 L 3.861,10.586 Z m 3.029,13.782 h 3.529 l 8.821,-22.937 h -4.027 l -2.831,7.324 h -9.122 l -1.797,-5.56 c -0.699,-1.764 -2.397,-1.764 -3.329,-1.764 -0.2,0 0,0.633 0.234,1.265 z" /></g><g
           transform="translate(444.2483,86.7537)"
           id="g128"><path
             id="path130"
             style="fill:#188a35;fill-opacity:1;fill-rule:nonzero;stroke:none"
             d="m 0,0 v -18.708 c 1.464,-0.866 2.93,-1.598 5.026,-1.598 5.26,0 6.859,5.36 6.859,10.419 C 11.885,-4.86 9.921,0.566 4.96,0.566 2.33,0.566 1.165,0.233 0,0 M -4.029,1.599 4.96,1.931 c 8.256,0 11.252,-7.057 11.252,-11.818 0,-4.794 -2.663,-11.785 -11.551,-11.785 -2.764,0 -4.961,0.234 -8.656,1.366 z" /></g><g
           transform="translate(444.2483,86.7537)"
           id="g132"><path
             id="path134"
             style="fill:none;stroke:#188a35;stroke-width:1;stroke-linecap:butt;stroke-linejoin:miter;stroke-miterlimit:10;stroke-dasharray:none;stroke-opacity:1"
             d="m 0,0 v -18.708 c 1.464,-0.866 2.93,-1.598 5.026,-1.598 5.26,0 6.859,5.36 6.859,10.419 C 11.885,-4.86 9.921,0.566 4.96,0.566 2.33,0.566 1.165,0.233 0,0 Z M -4.029,1.599 4.96,1.931 c 8.256,0 11.252,-7.057 11.252,-11.818 0,-4.794 -2.663,-11.785 -11.551,-11.785 -2.764,0 -4.961,0.234 -8.656,1.366 z" /></g><g
           transform="translate(463.2561,65.3816)"
           id="g136"><path
             id="path138"
             style="fill:#188a35;fill-opacity:1;fill-rule:nonzero;stroke:none"
             d="M 0,0 -0.033,22.971 H 14.98 c 0.4,0 0.667,-0.499 0.268,-1.033 -0.399,-0.532 -1.532,-1.231 -3.329,-1.231 -1.898,0 -3.33,0.765 -7.957,0.765 V 12.118 H 12.65 V 10.287 H 3.962 V 1.498 c 5.659,0 6.725,0.767 8.622,0.767 1.798,0 2.963,-0.667 3.297,-1.099 C 16.28,0.633 16.047,0 15.647,0 Z" /></g><g
           transform="translate(463.2561,65.3816)"
           id="g140"><path
             id="path142"
             style="fill:none;stroke:#188a35;stroke-width:1;stroke-linecap:butt;stroke-linejoin:miter;stroke-miterlimit:10;stroke-dasharray:none;stroke-opacity:1"
             d="M 0,0 -0.033,22.971 H 14.98 c 0.4,0 0.667,-0.499 0.268,-1.033 -0.399,-0.532 -1.532,-1.231 -3.329,-1.231 -1.898,0 -3.33,0.765 -7.957,0.765 V 12.118 H 12.65 V 10.287 H 3.962 V 1.498 c 5.659,0 6.725,0.767 8.622,0.767 1.798,0 2.963,-0.667 3.297,-1.099 C 16.28,0.633 16.047,0 15.647,0 Z" /></g><g
           transform="translate(507.8322,88.3523)"
           id="g144"><path
             id="path146"
             style="fill:#188a35;fill-opacity:1;fill-rule:nonzero;stroke:none"
             d="m 0,0 c 0.399,0 0.666,-0.499 0.267,-1.032 -0.4,-0.532 -1.532,-1.232 -3.33,-1.232 -1.63,0 -2.595,0.534 -5.227,0.7 v -21.407 h -3.961 l -0.033,21.407 c -2.663,-0.166 -3.628,-0.7 -5.227,-0.7 -1.798,0 -2.929,0.7 -3.329,1.232 C -21.239,-0.499 -20.974,0 -20.572,0 Z" /></g><g
           transform="translate(507.8322,88.3523)"
           id="g148"><path
             id="path150"
             style="fill:none;stroke:#188a35;stroke-width:1;stroke-linecap:butt;stroke-linejoin:miter;stroke-miterlimit:10;stroke-dasharray:none;stroke-opacity:1"
             d="m 0,0 c 0.399,0 0.666,-0.499 0.267,-1.032 -0.4,-0.532 -1.532,-1.232 -3.33,-1.232 -1.63,0 -2.595,0.534 -5.227,0.7 v -21.407 h -3.961 l -0.033,21.407 c -2.663,-0.166 -3.628,-0.7 -5.227,-0.7 -1.798,0 -2.929,0.7 -3.329,1.232 C -21.239,-0.499 -20.974,0 -20.572,0 Z" /></g><g
           transform="translate(513.2248,86.9539)"
           id="g152"><path
             id="path154"
             style="fill:#188a35;fill-opacity:1;fill-rule:nonzero;stroke:none"
             d="m 0,0 v -11.186 c 0.699,-0.066 1.365,-0.099 2.03,-0.099 4.062,0 6.526,1.198 6.526,5.825 0,3.563 -1.964,5.826 -4.494,5.826 C 1.365,0.366 0.865,0.167 0,0 M -3.995,1.432 4.062,1.73 c 5.493,0 8.822,-2.461 8.822,-7.49 0,-4.094 -3.363,-6.258 -6.492,-6.857 3.029,-2.963 5.425,-6.392 7.79,-8.422 0.333,-0.268 0,-0.633 -0.733,-0.633 H 12.55 c -1.464,0 -3.229,0.134 -4.127,1.566 -1.032,1.663 -2.265,4.66 -4.728,7.123 -0.466,0 -0.899,-0.034 -1.365,-0.034 -0.765,0 -1.565,0.034 -2.33,0.101 v -8.656 h -3.962 z" /></g><g
           transform="translate(513.2248,86.9539)"
           id="g156"><path
             id="path158"
             style="fill:none;stroke:#188a35;stroke-width:1;stroke-linecap:butt;stroke-linejoin:miter;stroke-miterlimit:10;stroke-dasharray:none;stroke-opacity:1"
             d="m 0,0 v -11.186 c 0.699,-0.066 1.365,-0.099 2.03,-0.099 4.062,0 6.526,1.198 6.526,5.825 0,3.563 -1.964,5.826 -4.494,5.826 C 1.365,0.366 0.865,0.167 0,0 Z M -3.995,1.432 4.062,1.73 c 5.493,0 8.822,-2.461 8.822,-7.49 0,-4.094 -3.363,-6.258 -6.492,-6.857 3.029,-2.963 5.425,-6.392 7.79,-8.422 0.333,-0.268 0,-0.633 -0.733,-0.633 H 12.55 c -1.464,0 -3.229,0.134 -4.127,1.566 -1.032,1.663 -2.265,4.66 -4.728,7.123 -0.466,0 -0.899,-0.034 -1.365,-0.034 -0.765,0 -1.565,0.034 -2.33,0.101 v -8.656 h -3.962 z" /></g><g
           transform="translate(533.6672,74.5369)"
           id="g160"><path
             id="path162"
             style="fill:#188a35;fill-opacity:1;fill-rule:nonzero;stroke:none"
             d="M 0,0 H 7.889 L 3.861,10.586 Z m 3.029,13.782 h 3.529 l 8.821,-22.937 h -4.027 l -2.831,7.324 h -9.122 l -1.797,-5.56 c -0.699,-1.764 -2.397,-1.764 -3.329,-1.764 -0.2,0 0,0.633 0.234,1.265 z" /></g><g
           transform="translate(533.6672,74.5369)"
           id="g164"><path
             id="path166"
             style="fill:none;stroke:#188a35;stroke-width:1;stroke-linecap:butt;stroke-linejoin:miter;stroke-miterlimit:10;stroke-dasharray:none;stroke-opacity:1"
             d="M 0,0 H 7.889 L 3.861,10.586 Z m 3.029,13.782 h 3.529 l 8.821,-22.937 h -4.027 l -2.831,7.324 h -9.122 l -1.797,-5.56 c -0.699,-1.764 -2.397,-1.764 -3.329,-1.764 -0.2,0 0,0.633 0.234,1.265 z" /></g><g
           transform="translate(555.3049,76.2684)"
           id="g168"><path
             id="path170"
             style="fill:#188a35;fill-opacity:1;fill-rule:nonzero;stroke:none"
             d="m 0,0 v -9.155 c 1.397,-0.266 2.364,-0.4 3.995,-0.4 2.796,0 4.96,1.298 4.96,5.027 C 8.955,-0.667 5.226,0 2.164,0 Z M 0,10.785 V 1.531 h 1.531 c 2.796,0 5.893,0.732 5.893,5.06 0,3.163 -1.566,4.461 -3.563,4.461 -1.531,0 -2.996,-0.1 -3.861,-0.267 m -3.995,1.332 7.856,0.299 c 4.827,0 7.89,-2.33 7.89,-5.825 0,-3.462 -2.995,-4.861 -5.426,-5.626 3.928,0 6.957,-1.997 6.957,-5.86 0,-5.459 -5.525,-6.292 -9.121,-6.292 -2.297,0 -5.459,0.166 -8.123,0.3 z" /></g><g
           transform="translate(555.3049,76.2684)"
           id="g172"><path
             id="path174"
             style="fill:none;stroke:#188a35;stroke-width:1;stroke-linecap:butt;stroke-linejoin:miter;stroke-miterlimit:10;stroke-dasharray:none;stroke-opacity:1"
             d="m 0,0 v -9.155 c 1.397,-0.266 2.364,-0.4 3.995,-0.4 2.796,0 4.96,1.298 4.96,5.027 C 8.955,-0.667 5.226,0 2.164,0 Z M 0,10.785 V 1.531 h 1.531 c 2.796,0 5.893,0.732 5.893,5.06 0,3.163 -1.566,4.461 -3.563,4.461 -1.531,0 -2.996,-0.1 -3.861,-0.267 z m -3.995,1.332 7.856,0.299 c 4.827,0 7.89,-2.33 7.89,-5.825 0,-3.462 -2.995,-4.861 -5.426,-5.626 3.928,0 6.957,-1.997 6.957,-5.86 0,-5.459 -5.525,-6.292 -9.121,-6.292 -2.297,0 -5.459,0.166 -8.123,0.3 z" /></g><g
           transform="translate(575.0451,74.5369)"
           id="g176"><path
             id="path178"
             style="fill:#188a35;fill-opacity:1;fill-rule:nonzero;stroke:none"
             d="M 0,0 H 7.89 L 3.862,10.586 Z M 3.029,13.782 H 6.558 L 15.38,-9.155 H 11.353 L 8.522,-1.831 H -0.6 l -1.797,-5.56 c -0.7,-1.764 -2.397,-1.764 -3.33,-1.764 -0.199,0 0,0.633 0.234,1.265 z" /></g><g
           transform="translate(575.0451,74.5369)"
           id="g180"><path
             id="path182"
             style="fill:none;stroke:#188a35;stroke-width:1;stroke-linecap:butt;stroke-linejoin:miter;stroke-miterlimit:10;stroke-dasharray:none;stroke-opacity:1"
             d="M 0,0 H 7.89 L 3.862,10.586 Z M 3.029,13.782 H 6.558 L 15.38,-9.155 H 11.353 L 8.522,-1.831 H -0.6 l -1.797,-5.56 c -0.7,-1.764 -2.397,-1.764 -3.33,-1.764 -0.199,0 0,0.633 0.234,1.265 z" /></g><g
           transform="translate(600.7795,72.7381)"
           id="g184"><path
             id="path186"
             style="fill:#188a35;fill-opacity:1;fill-rule:nonzero;stroke:none"
             d="m 0,0 c 0,-4.727 -1.599,-7.59 -6.625,-7.59 -1.032,0 -2.196,0.134 -3.528,0.367 v 1.698 c 0.898,-0.2 1.664,-0.266 2.297,-0.266 4.06,0 3.894,3.429 3.894,6.458 L -3.995,15.614 H 0 Z" /></g><g
           transform="translate(600.7795,72.7381)"
           id="g188"><path
             id="path190"
             style="fill:none;stroke:#188a35;stroke-width:1;stroke-linecap:butt;stroke-linejoin:miter;stroke-miterlimit:10;stroke-dasharray:none;stroke-opacity:1"
             d="m 0,0 c 0,-4.727 -1.599,-7.59 -6.625,-7.59 -1.032,0 -2.196,0.134 -3.528,0.367 v 1.698 c 0.898,-0.2 1.664,-0.266 2.297,-0.266 4.06,0 3.894,3.429 3.894,6.458 L -3.995,15.614 H 0 Z" /></g><g
           transform="translate(614.926,87.3201)"
           id="g192"><path
             id="path194"
             style="fill:#188a35;fill-opacity:1;fill-rule:nonzero;stroke:none"
             d="m 0,0 c -4.96,0 -6.691,-5.427 -6.691,-10.453 0,-5.06 1.731,-10.419 6.691,-10.419 4.86,0 6.592,5.359 6.592,10.419 C 6.592,-5.427 4.86,0 0,0 m 0,1.364 c 7.924,0 10.92,-6.391 10.92,-11.817 0,-5.459 -2.996,-11.785 -10.92,-11.785 -8.022,0 -11.019,6.326 -11.019,11.785 0,5.426 2.997,11.817 11.019,11.817" /></g><g
           transform="translate(614.926,87.3201)"
           id="g196"><path
             id="path198"
             style="fill:none;stroke:#188a35;stroke-width:1;stroke-linecap:butt;stroke-linejoin:miter;stroke-miterlimit:10;stroke-dasharray:none;stroke-opacity:1"
             d="m 0,0 c -4.96,0 -6.691,-5.427 -6.691,-10.453 0,-5.06 1.731,-10.419 6.691,-10.419 4.86,0 6.592,5.359 6.592,10.419 C 6.592,-5.427 4.86,0 0,0 Z m 0,1.364 c 7.924,0 10.92,-6.391 10.92,-11.817 0,-5.459 -2.996,-11.785 -10.92,-11.785 -8.022,0 -11.019,6.326 -11.019,11.785 0,5.426 2.997,11.817 11.019,11.817 z" /></g><g
           transform="translate(255.1369,109.242)"
           id="g200"><path
             id="path202"
             style="fill:#188a35;fill-opacity:1;fill-rule:nonzero;stroke:none"
             d="m 0,0 -0.045,31.169 h 5.42 V 2.033 c 6.37,0.136 6.912,1.039 9.307,1.039 2.439,0 3.658,-0.903 4.472,-1.942 C 19.696,0.406 19.379,0 18.837,0 Z" /></g><g
           transform="translate(255.1369,109.242)"
           id="g204"><path
             id="path206"
             style="fill:none;stroke:#188a35;stroke-width:1.5;stroke-linecap:butt;stroke-linejoin:miter;stroke-miterlimit:10;stroke-dasharray:none;stroke-opacity:1"
             d="m 0,0 -0.045,31.169 h 5.42 V 2.033 c 6.37,0.136 6.912,1.039 9.307,1.039 2.439,0 3.658,-0.903 4.472,-1.942 C 19.696,0.406 19.379,0 18.837,0 Z" /></g><g
           transform="translate(284.967,121.6639)"
           id="g208"><path
             id="path210"
             style="fill:#188a35;fill-opacity:1;fill-rule:nonzero;stroke:none"
             d="M 0,0 H 10.705 L 5.239,14.365 Z m 4.109,18.702 h 4.789 l 11.971,-31.124 h -5.466 l -3.84,9.938 H -0.814 l -2.44,-7.544 c -0.948,-2.394 -3.252,-2.394 -4.517,-2.394 -0.271,0 0,0.858 0.316,1.716 z" /></g><g
           transform="translate(284.967,121.6639)"
           id="g212"><path
             id="path214"
             style="fill:none;stroke:#188a35;stroke-width:1.5;stroke-linecap:butt;stroke-linejoin:miter;stroke-miterlimit:10;stroke-dasharray:none;stroke-opacity:1"
             d="M 0,0 H 10.705 L 5.239,14.365 Z m 4.109,18.702 h 4.789 l 11.971,-31.124 h -5.466 l -3.84,9.938 H -0.814 l -2.44,-7.544 c -0.948,-2.394 -3.252,-2.394 -4.517,-2.394 -0.271,0 0,0.858 0.316,1.716 z" /></g><g
           transform="translate(339.5862,135.3074)"
           id="g216"><path
             id="path218"
             style="fill:#188a35;fill-opacity:1;fill-rule:nonzero;stroke:none"
             d="m 0,0 c -1.671,2.619 -3.884,3.703 -6.368,3.703 -6.686,0 -9.533,-7.362 -9.533,-14.183 0,-6.867 2.936,-14.14 9.533,-14.14 3.749,0 5.465,2.575 7.227,5.646 0.225,0.363 2.168,0.814 3.568,0.814 0.949,0 1.627,-0.181 1.355,-0.769 -1.942,-4.155 -5.691,-7.543 -12.15,-7.543 -10.888,0 -15.404,7.77 -15.404,15.992 0,7.543 4.516,16.036 15.404,16.036 4.064,0 6.956,-0.814 9.259,-2.665 C 4.021,1.987 5.06,0.722 5.557,-0.361 6.279,-1.988 5.241,-5.376 4.021,-5.376 2.484,-5.376 1.311,-2.033 0,0" /></g><g
           transform="translate(339.5862,135.3074)"
           id="g220"><path
             id="path222"
             style="fill:none;stroke:#188a35;stroke-width:1.5;stroke-linecap:butt;stroke-linejoin:miter;stroke-miterlimit:10;stroke-dasharray:none;stroke-opacity:1"
             d="m 0,0 c -1.671,2.619 -3.884,3.703 -6.368,3.703 -6.686,0 -9.533,-7.362 -9.533,-14.183 0,-6.867 2.936,-14.14 9.533,-14.14 3.749,0 5.465,2.575 7.227,5.646 0.225,0.363 2.168,0.814 3.568,0.814 0.949,0 1.627,-0.181 1.355,-0.769 -1.942,-4.155 -5.691,-7.543 -12.15,-7.543 -10.888,0 -15.404,7.77 -15.404,15.992 0,7.543 4.516,16.036 15.404,16.036 4.064,0 6.956,-0.814 9.259,-2.665 C 4.021,1.987 5.06,0.722 5.557,-0.361 6.279,-1.988 5.241,-5.376 4.021,-5.376 2.484,-5.376 1.311,-2.033 0,0 Z" /></g><g
           transform="translate(375.4709,140.4109)"
           id="g224"><path
             id="path226"
             style="fill:#188a35;fill-opacity:1;fill-rule:nonzero;stroke:none"
             d="m 0,0 v -31.169 h -5.376 l -0.045,13.958 h -13.145 v -13.958 h -5.376 L -23.986,0 h 5.42 v -14.726 h 13.145 l 0,14.726 z" /></g><g
           transform="translate(375.4709,140.4109)"
           id="g228"><path
             id="path230"
             style="fill:none;stroke:#188a35;stroke-width:1.5;stroke-linecap:butt;stroke-linejoin:miter;stroke-miterlimit:10;stroke-dasharray:none;stroke-opacity:1"
             d="m 0,0 v -31.169 h -5.376 l -0.045,13.958 h -13.145 v -13.958 h -5.376 L -23.986,0 h 5.42 v -14.726 h 13.145 l 0,14.726 z" /></g><g
           transform="translate(388.175,109.242)"
           id="g232"><path
             id="path234"
             style="fill:#188a35;fill-opacity:1;fill-rule:nonzero;stroke:none"
             d="M 0,0 H -5.376 L -5.42,31.169 H 0 Z" /></g><g
           transform="translate(388.175,109.242)"
           id="g236"><path
             id="path238"
             style="fill:none;stroke:#188a35;stroke-width:1.5;stroke-linecap:butt;stroke-linejoin:miter;stroke-miterlimit:10;stroke-dasharray:none;stroke-opacity:1"
             d="M 0,0 H -5.376 L -5.42,31.169 H 0 Z" /></g><g
           transform="translate(400.8762,138.5135)"
           id="g240"><path
             id="path242"
             style="fill:#188a35;fill-opacity:1;fill-rule:nonzero;stroke:none"
             d="m 0,0 v -15.223 c 0.633,-0.045 1.581,-0.045 3.027,-0.045 4.788,0 8.312,1.852 8.312,7.454 0,5.782 -2.756,8.311 -6.099,8.311 C 1.581,0.497 1.175,0.227 0,0 M -5.42,1.942 5.24,2.35 c 7.454,0 11.972,-2.892 11.972,-10.164 0,-8.041 -6.866,-9.848 -14.275,-9.848 -1.446,0 -1.807,0 -2.937,0.045 v -11.654 h -5.376 z" /></g><g
           transform="translate(400.8762,138.5135)"
           id="g244"><path
             id="path246"
             style="fill:none;stroke:#188a35;stroke-width:1.5;stroke-linecap:butt;stroke-linejoin:miter;stroke-miterlimit:10;stroke-dasharray:none;stroke-opacity:1"
             d="m 0,0 v -15.223 c 0.633,-0.045 1.581,-0.045 3.027,-0.045 4.788,0 8.312,1.852 8.312,7.454 0,5.782 -2.756,8.311 -6.099,8.311 C 1.581,0.497 1.175,0.227 0,0 Z M -5.42,1.942 5.24,2.35 c 7.454,0 11.972,-2.892 11.972,-10.164 0,-8.041 -6.866,-9.848 -14.275,-9.848 -1.446,0 -1.807,0 -2.937,0.045 v -11.654 h -5.376 z" /></g><g
           transform="translate(428.0793,109.242)"
           id="g248"><path
             id="path250"
             style="fill:#188a35;fill-opacity:1;fill-rule:nonzero;stroke:none"
             d="M 0,0 H -5.376 L -5.42,31.169 H 0 Z" /></g><g
           transform="translate(428.0793,109.242)"
           id="g252"><path
             id="path254"
             style="fill:none;stroke:#188a35;stroke-width:1.5;stroke-linecap:butt;stroke-linejoin:miter;stroke-miterlimit:10;stroke-dasharray:none;stroke-opacity:1"
             d="M 0,0 H -5.376 L -5.42,31.169 H 0 Z" /></g><g
           transform="translate(448.3254,139.0105)"
           id="g256"><path
             id="path258"
             style="fill:#188a35;fill-opacity:1;fill-rule:nonzero;stroke:none"
             d="m 0,0 c -6.73,0 -9.08,-7.362 -9.08,-14.184 0,-6.866 2.35,-14.139 9.08,-14.139 6.596,0 8.944,7.273 8.944,14.139 C 8.944,-7.362 6.596,0 0,0 m 0,1.853 c 10.751,0 14.816,-9.578 14.816,-16.037 0,-5.511 -3.162,-13.145 -10.389,-15.358 2.981,-0.497 6.053,-0.994 11.836,-0.994 0.948,0 1.536,-1.627 -0.362,-2.892 -1.174,-0.813 -2.756,-1.445 -4.291,-1.445 -0.632,0 -1.22,0.09 -1.808,0.361 -2.485,1.13 -3.885,4.111 -9.938,4.337 h -0.091 c -10.706,0.136 -14.725,9.531 -14.725,15.991 0,6.459 4.065,16.037 14.952,16.037" /></g><g
           transform="translate(448.3254,139.0105)"
           id="g260"><path
             id="path262"
             style="fill:none;stroke:#188a35;stroke-width:1.5;stroke-linecap:butt;stroke-linejoin:miter;stroke-miterlimit:10;stroke-dasharray:none;stroke-opacity:1"
             d="m 0,0 c -6.73,0 -9.08,-7.362 -9.08,-14.184 0,-6.866 2.35,-14.139 9.08,-14.139 6.596,0 8.944,7.273 8.944,14.139 C 8.944,-7.362 6.596,0 0,0 Z m 0,1.853 c 10.751,0 14.816,-9.578 14.816,-16.037 0,-5.511 -3.162,-13.145 -10.389,-15.358 2.981,-0.497 6.053,-0.994 11.836,-0.994 0.948,0 1.536,-1.627 -0.362,-2.892 -1.174,-0.813 -2.756,-1.445 -4.291,-1.445 -0.632,0 -1.22,0.09 -1.808,0.361 -2.485,1.13 -3.885,4.111 -9.938,4.337 h -0.091 c -10.706,0.136 -14.725,9.531 -14.725,15.991 0,6.459 4.065,16.037 14.952,16.037 z" /></g><g
           transform="translate(468.7102,140.4109)"
           id="g264"><path
             id="path266"
             style="fill:#188a35;fill-opacity:1;fill-rule:nonzero;stroke:none"
             d="M 0,0 H 5.465 L 5.42,-16.353 c 0,-4.743 -0.09,-12.918 7.272,-12.918 7.5,0 7.5,8.13 7.5,12.918 L 20.146,0 h 5.466 v -17.256 c 0,-7.68 -2.213,-14.229 -12.693,-14.319 C 2.213,-31.575 0,-24.98 0,-17.256 Z" /></g><g
           transform="translate(468.7102,140.4109)"
           id="g268"><path
             id="path270"
             style="fill:none;stroke:#188a35;stroke-width:1.5;stroke-linecap:butt;stroke-linejoin:miter;stroke-miterlimit:10;stroke-dasharray:none;stroke-opacity:1"
             d="M 0,0 H 5.465 L 5.42,-16.353 c 0,-4.743 -0.09,-12.918 7.272,-12.918 7.5,0 7.5,8.13 7.5,12.918 L 20.146,0 h 5.466 v -17.256 c 0,-7.68 -2.213,-14.229 -12.693,-14.319 C 2.213,-31.575 0,-24.98 0,-17.256 Z" /></g><g
           transform="translate(501.6057,109.242)"
           id="g272"><path
             id="path274"
             style="fill:#188a35;fill-opacity:1;fill-rule:nonzero;stroke:none"
             d="m 0,0 -0.044,31.169 h 20.372 c 0.543,0 0.903,-0.677 0.361,-1.4 -0.541,-0.722 -2.077,-1.671 -4.516,-1.671 -2.575,0 -4.518,1.039 -10.797,1.039 V 16.443 H 17.167 V 13.958 H 5.376 V 2.033 c 7.68,0 9.125,1.039 11.7,1.039 2.44,0 4.022,-0.903 4.473,-1.491 C 22.091,0.857 21.774,0 21.231,0 Z" /></g><g
           transform="translate(501.6057,109.242)"
           id="g276"><path
             id="path278"
             style="fill:none;stroke:#188a35;stroke-width:1.5;stroke-linecap:butt;stroke-linejoin:miter;stroke-miterlimit:10;stroke-dasharray:none;stroke-opacity:1"
             d="m 0,0 -0.044,31.169 h 20.372 c 0.543,0 0.903,-0.677 0.361,-1.4 -0.541,-0.722 -2.077,-1.671 -4.516,-1.671 -2.575,0 -4.518,1.039 -10.797,1.039 V 16.443 H 17.167 V 13.958 H 5.376 V 2.033 c 7.68,0 9.125,1.039 11.7,1.039 2.44,0 4.022,-0.903 4.473,-1.491 C 22.091,0.857 21.774,0 21.231,0 Z" /></g><g
           transform="translate(535.1408,138.5135)"
           id="g280"><path
             id="path282"
             style="fill:#188a35;fill-opacity:1;fill-rule:nonzero;stroke:none"
             d="m 0,0 v -15.178 c 0.949,-0.09 1.853,-0.135 2.757,-0.135 5.51,0 8.852,1.626 8.852,7.906 0,4.833 -2.664,7.904 -6.097,7.904 C 1.853,0.497 1.175,0.227 0,0 M -5.42,1.942 5.512,2.35 c 7.453,0 11.97,-3.343 11.97,-10.164 0,-5.557 -4.562,-8.493 -8.808,-9.306 4.111,-4.021 7.363,-8.673 10.57,-11.43 0.451,-0.36 0,-0.857 -0.994,-0.857 h -1.219 c -1.988,0 -4.382,0.18 -5.601,2.123 -1.402,2.259 -3.073,6.324 -6.415,9.667 -0.633,0 -1.22,-0.045 -1.852,-0.045 -1.039,0 -2.124,0.045 -3.163,0.136 v -11.745 h -5.376 z" /></g><g
           transform="translate(535.1408,138.5135)"
           id="g284"><path
             id="path286"
             style="fill:none;stroke:#188a35;stroke-width:1.5;stroke-linecap:butt;stroke-linejoin:miter;stroke-miterlimit:10;stroke-dasharray:none;stroke-opacity:1"
             d="m 0,0 v -15.178 c 0.949,-0.09 1.853,-0.135 2.757,-0.135 5.51,0 8.852,1.626 8.852,7.906 0,4.833 -2.664,7.904 -6.097,7.904 C 1.853,0.497 1.175,0.227 0,0 Z M -5.42,1.942 5.512,2.35 c 7.453,0 11.97,-3.343 11.97,-10.164 0,-5.557 -4.562,-8.493 -8.808,-9.306 4.111,-4.021 7.363,-8.673 10.57,-11.43 0.451,-0.36 0,-0.857 -0.994,-0.857 h -1.219 c -1.988,0 -4.382,0.18 -5.601,2.123 -1.402,2.259 -3.073,6.324 -6.415,9.667 -0.633,0 -1.22,-0.045 -1.852,-0.045 -1.039,0 -2.124,0.045 -3.163,0.136 v -11.745 h -5.376 z" /></g><g
           transform="translate(565.9279,121.6639)"
           id="g288"><path
             id="path290"
             style="fill:#188a35;fill-opacity:1;fill-rule:nonzero;stroke:none"
             d="M 0,0 H 10.705 L 5.24,14.365 Z m 4.11,18.702 h 4.788 l 11.971,-31.124 h -5.465 l -3.84,9.938 H -0.813 l -2.44,-7.544 c -0.949,-2.394 -3.253,-2.394 -4.517,-2.394 -0.272,0 0,0.858 0.316,1.716 z" /></g><g
           transform="translate(565.9279,121.6639)"
           id="g292"><path
             id="path294"
             style="fill:none;stroke:#188a35;stroke-width:1.5;stroke-linecap:butt;stroke-linejoin:miter;stroke-miterlimit:10;stroke-dasharray:none;stroke-opacity:1"
             d="M 0,0 H 10.705 L 5.24,14.365 Z m 4.11,18.702 h 4.788 l 11.971,-31.124 h -5.465 l -3.84,9.938 H -0.813 l -2.44,-7.544 c -0.949,-2.394 -3.253,-2.394 -4.517,-2.394 -0.272,0 0,0.858 0.316,1.716 z" /></g></g></g></g></svg>